<svg viewBox="0 0 100 100" xmlns="http://www.w3.org/2000/svg">
  <rect x="10" y="10" width="80" height="80" rx="5" fill="none" stroke="currentColor" stroke-width="2"/>
  <rect x="20" y="20" width="15" height="15" rx="2" fill="currentColor"/>
  <rect x="40" y="20" width="15" height="15" rx="2" fill="currentColor"/>
  <rect x="60" y="20" width="15" height="15" rx="2" fill="currentColor"/>
  <rect x="20" y="40" width="15" height="15" rx="2" fill="currentColor"/>
  <rect x="40" y="40" width="15" height="15" rx="2" fill="currentColor"/>
  <rect x="60" y="40" width="15" height="15" rx="2" fill="currentColor"/>
  <rect x="20" y="60" width="15" height="15" rx="2" fill="currentColor"/>
  <rect x="40" y="60" width="15" height="15" rx="2" fill="currentColor"/>
  <rect x="60" y="60" width="15" height="15" rx="2" fill="currentColor"/>
  <line x1="35" y1="27.5" x2="40" y2="27.5" stroke="currentColor" stroke-width="1.5"/>
  <line x1="55" y1="27.5" x2="60" y2="27.5" stroke="currentColor" stroke-width="1.5"/>
  <line x1="35" y1="47.5" x2="40" y2="47.5" stroke="currentColor" stroke-width="1.5"/>
  <line x1="55" y1="47.5" x2="60" y2="47.5" stroke="currentColor" stroke-width="1.5"/>
  <line x1="35" y1="67.5" x2="40" y2="67.5" stroke="currentColor" stroke-width="1.5"/>
  <line x1="55" y1="67.5" x2="60" y2="67.5" stroke="currentColor" stroke-width="1.5"/>
  <line x1="27.5" y1="35" x2="27.5" y2="40" stroke="currentColor" stroke-width="1.5"/>
  <line x1="27.5" y1="55" x2="27.5" y2="60" stroke="currentColor" stroke-width="1.5"/>
  <line x1="47.5" y1="35" x2="47.5" y2="40" stroke="currentColor" stroke-width="1.5"/>
  <line x1="47.5" y1="55" x2="47.5" y2="60" stroke="currentColor" stroke-width="1.5"/>
  <line x1="67.5" y1="35" x2="67.5" y2="40" stroke="currentColor" stroke-width="1.5"/>
  <line x1="67.5" y1="55" x2="67.5" y2="60" stroke="currentColor" stroke-width="1.5"/>
</svg>

