<svg viewBox="0 0 100 100" xmlns="http://www.w3.org/2000/svg">
  <circle cx="30" cy="30" r="6" fill="currentColor"/>
  <circle cx="50" cy="30" r="6" fill="currentColor"/>
  <circle cx="70" cy="30" r="6" fill="currentColor"/>
  <circle cx="25" cy="50" r="6" fill="currentColor"/>
  <circle cx="50" cy="50" r="6" fill="currentColor"/>
  <circle cx="75" cy="50" r="6" fill="currentColor"/>
  <circle cx="50" cy="70" r="6" fill="currentColor"/>
  <line x1="30" y1="30" x2="25" y2="50" stroke="currentColor" stroke-width="1.5"/>
  <line x1="30" y1="30" x2="50" y2="50" stroke="currentColor" stroke-width="1.5"/>
  <line x1="50" y1="30" x2="25" y2="50" stroke="currentColor" stroke-width="1.5"/>
  <line x1="50" y1="30" x2="50" y2="50" stroke="currentColor" stroke-width="1.5"/>
  <line x1="50" y1="30" x2="75" y2="50" stroke="currentColor" stroke-width="1.5"/>
  <line x1="70" y1="30" x2="50" y2="50" stroke="currentColor" stroke-width="1.5"/>
  <line x1="70" y1="30" x2="75" y2="50" stroke="currentColor" stroke-width="1.5"/>
  <line x1="25" y1="50" x2="50" y2="70" stroke="currentColor" stroke-width="1.5"/>
  <line x1="50" y1="50" x2="50" y2="70" stroke="currentColor" stroke-width="1.5"/>
  <line x1="75" y1="50" x2="50" y2="70" stroke="currentColor" stroke-width="1.5"/>
</svg>

