<svg viewBox="0 0 100 100" xmlns="http://www.w3.org/2000/svg">
  <path d="M 50 10 C 35 10, 25 18, 25 30 L 25 45 C 25 50, 30 55, 35 55 L 45 55 C 50 55, 55 60, 55 65 L 55 75 C 55 82, 62 85, 68 85 C 75 85, 80 82, 80 75 L 80 60" stroke="currentColor" stroke-width="4" fill="none" stroke-linecap="round"/>
  <path d="M 50 90 C 65 90, 75 82, 75 70 L 75 55 C 75 50, 70 45, 65 45 L 55 45 C 50 45, 45 40, 45 35 L 45 25 C 45 18, 38 15, 32 15 C 25 15, 20 18, 20 25 L 20 40" stroke="currentColor" stroke-width="4" fill="none" stroke-linecap="round"/>
  <circle cx="35" cy="30" r="5" fill="currentColor"/>
  <circle cx="65" cy="70" r="5" fill="currentColor"/>
</svg>

